<svg class="svg-inline icon-payment" role="img" aria-hidden="true" xmlns="http://www.w3.org/2000/svg" width="35" height="28"><path fill="none" stroke="#252323" stroke-linecap="round" stroke-linejoin="round" d="M30.391 10.043H25.87M19.087 27H8.347C4.412 27 1 23.589 1 19.652V15.13c0-8.075 5.627-9.608 8.478-9.608H14c1.385 0 2.826.835 2.826 2.26v1.131c0 1.425-1.4 2.26-2.826 2.26h-2.826s-1.67 4.523-4.522 4.523m8.478 2.26h9.61c1.18 0 2.26 1.08 2.26 2.261s-1.08 2.261-2.26 2.261h-5.653m-3.957 0h3.76c1.18 0 1.893 1.08 1.893 2.261 0 1.18-.713 2.261-1.893 2.261h-2.064M33.783 6.652H16.467m-7.554-1.13v-2.58c0-1.181.81-1.942 1.99-1.942h20.619c1.18 0 2.26 1.08 2.26 2.26v12.436c0 1.18-1.08 2.26-2.26 2.26H11.174c-1.181 0-2.261-1.08-2.261-2.26v-1.003"/></svg>